# xmcd
#
# Track frame offsets:
#	150
#	14225
#	26886
#	37899
#	52047
#	71898
#	87650
#	107771
#	122636
#	149250
#	161523
#	176639
#	194025
#
# Disc length: 2777 seconds
#
# Revision: 0
# Processed by: cddbd v1.5.2PL0 Copyright (c) Steve Scherf et al.
# Submitted via: MusicManager 7.0.3.0 
#
DISCID=c60ad70d
DTITLE=Teddy Thompson - Up Front and Down Low
DYEAR=2007
DGENRE=country
TTITLE0=Change of Heart
TTITLE1=Touching Home
TTITLE2=Walking the Floor over You
TTITLE3=Strangers
TTITLE4=I'm Left You're Right, She's Gone
TTITLE5=My Heart Echoes
TTITLE6=The Worst is Yet to Come
TTITLE7=My Bleu Tears
TTITLE8=Down Low
TTITLE9=You Finally said Something Good
TTITLE10=She Thinks I Still Care
TTITLE11=Lets Think About Living
TTITLE12=Don't Ask Me To Be Friends
EXTD=
EXTT0=
EXTT1=
EXTT2=
EXTT3=
EXTT4=
EXTT5=
EXTT6=
EXTT7=
EXTT8=
EXTT9=
EXTT10=
EXTT11=
EXTT12=
PLAYORDER=
